<?xml version="1.0" encoding="UTF-8"?>
<svg width="172px" height="66px" viewBox="0 0 172 66" version="1.1" xmlns="http://www.w3.org/2000/svg" xmlns:xlink="http://www.w3.org/1999/xlink">
    <!-- Generator: Sketch 46.2 (44496) - http://www.bohemiancoding.com/sketch -->
    <title>Group Copy@2x</title>
    <desc>Created with Sketch.</desc>
    <defs></defs>
    <g id="Page-1" stroke="none" stroke-width="1" fill="none" fill-rule="evenodd">
        <g id="Login-Step1-" transform="translate(-874.000000, -18.000000)">
            <g id="Group-Copy" transform="translate(874.000000, 15.000000)">
                <rect id="Rectangle-10" fill="#030923" fill-opacity="0" x="0" y="3" width="172" height="66"></rect>
                <path d="M22.6095571,18.5239161 L21.4034033,15.2275524 C21.344009,15.0813513 21.2823313,14.9077399 21.2183683,14.7067133 C21.1544053,14.5056866 21.0904432,14.2886725 21.0264802,14.0556643 C20.967086,14.2886725 20.9054082,14.5068288 20.8414452,14.7101399 C20.7774822,14.9134509 20.7158045,15.0904888 20.6564103,15.2412587 L19.4571096,18.5239161 L22.6095571,18.5239161 Z M25.8648019,22.2657343 L24.4393473,22.2657343 C24.2794398,22.2657343 24.1492313,22.225758 24.0487179,22.1458042 C23.9482046,22.0658504 23.8728208,21.9664808 23.8225641,21.8476923 L23.0824242,19.826014 L18.9773893,19.826014 L18.2372494,21.8476923 C18.2006991,21.9527744 18.129884,22.0487175 18.0248019,22.1355245 C17.9197198,22.2223314 17.7895113,22.2657343 17.6341725,22.2657343 L16.1950117,22.2657343 L20.0944522,12.3560839 L21.9722145,12.3560839 L25.8648019,22.2657343 Z M43.1050354,17.2972028 L43.1050354,21.3062937 C42.6024688,21.6763655 42.0667865,21.9470621 41.4979725,22.1183916 C40.9291584,22.2897211 40.3203767,22.3753846 39.6716088,22.3753846 C38.8629335,22.3753846 38.1307963,22.2497448 37.4751753,21.9984615 C36.8195543,21.7471782 36.2598862,21.3976712 35.7961543,20.9499301 C35.3324224,20.5021889 34.9749201,19.9676488 34.7236368,19.3462937 C34.4723535,18.7249386 34.3467137,18.0464839 34.3467137,17.3109091 C34.3467137,16.5661967 34.4677848,15.8831733 34.7099305,15.2618182 C34.9520763,14.6404631 35.2958723,14.105923 35.7413291,13.6581818 C36.1867859,13.2104407 36.7270369,12.863218 37.3620984,12.6165035 C37.9971598,12.369789 38.7098799,12.2464336 39.5002802,12.2464336 C39.9023335,12.2464336 40.2781106,12.2784146 40.6276228,12.3423776 C40.9771351,12.4063406 41.3015141,12.4942885 41.6007697,12.6062238 C41.9000253,12.7181591 42.1730062,12.8540785 42.4197207,13.013986 C42.6664353,13.1738936 42.8925868,13.3497893 43.0981823,13.5416783 L42.57049,14.3777622 C42.4882518,14.5102571 42.3808869,14.5913518 42.2483921,14.621049 C42.1158972,14.6507461 41.9719826,14.6176229 41.8166438,14.5216783 L41.3643361,14.2612587 C41.2135661,14.1744518 41.0456657,14.0990679 40.8606298,14.0351049 C40.6755939,13.9711419 40.4677172,13.9186016 40.2369935,13.8774825 C40.0062697,13.8363634 39.7401418,13.8158042 39.4386018,13.8158042 C38.9497416,13.8158042 38.507718,13.8980411 38.1125179,14.0625175 C37.7173178,14.2269938 37.3803748,14.4622829 37.1016788,14.7683916 C36.8229827,15.0745004 36.608253,15.4422822 36.457483,15.8717483 C36.306713,16.3012143 36.2313291,16.7809298 36.2313291,17.3109091 C36.2313291,17.8774387 36.3124239,18.3834243 36.4746158,18.8288811 C36.6368078,19.2743379 36.8652437,19.6512572 37.1599305,19.9596503 C37.4546173,20.2680435 37.8098352,20.5033325 38.2255949,20.6655245 C38.6413545,20.8277164 39.1050795,20.9088112 39.6167837,20.9088112 C39.9822867,20.9088112 40.3089501,20.8699771 40.5967837,20.7923077 C40.8846173,20.7146383 41.1655935,20.6095578 41.4397207,20.4770629 L41.4397207,18.6815385 L40.192448,18.6815385 C40.0736595,18.6815385 39.981143,18.6484152 39.9148956,18.5821678 C39.8486481,18.5159204 39.8155249,18.4348257 39.8155249,18.3388811 L39.8155249,17.2972028 L43.1050354,17.2972028 Z M55.075199,13.8226573 L55.075199,16.5707692 L58.5428913,16.5707692 L58.5428913,17.9893706 L55.075199,17.9893706 L55.075199,20.7923077 L59.4749193,20.7923077 L59.4749193,22.2657343 L53.2248494,22.2657343 L53.2248494,12.3560839 L59.4749193,12.3560839 L59.4749193,13.8226573 L55.075199,13.8226573 Z M77.7979501,12.3560839 L77.7979501,22.2657343 L76.8522158,22.2657343 C76.7060146,22.2657343 76.5838014,22.2417485 76.4855724,22.1937762 C76.3873435,22.145804 76.2925426,22.0647092 76.2011669,21.9504895 L71.027041,15.3440559 C71.0544537,15.6455959 71.0681599,15.9242878 71.0681599,16.1801399 L71.0681599,22.2657343 L69.4439641,22.2657343 L69.4439641,12.3560839 L70.4102578,12.3560839 C70.4879272,12.3560839 70.5553158,12.3595105 70.6124256,12.3663636 C70.6695354,12.3732168 70.7197913,12.386923 70.7631948,12.4074825 C70.8065983,12.4280421 70.848859,12.4577387 70.889978,12.4965734 C70.9310971,12.5354081 70.9767843,12.5868062 71.027041,12.6507692 L76.2217263,19.2846154 C76.2080199,19.1247078 76.1965981,18.967087 76.1874606,18.8117483 C76.178323,18.6564095 76.1737543,18.5124948 76.1737543,18.38 L76.1737543,12.3560839 L77.7979501,12.3560839 Z M95.2643375,13.8706294 L92.2763654,13.8706294 L92.2763654,22.2657343 L90.4328689,22.2657343 L90.4328689,13.8706294 L87.4448969,13.8706294 L87.4448969,12.3560839 L95.2643375,12.3560839 L95.2643375,13.8706294 Z M110.160795,14.1584615 C110.105969,14.2544061 110.047718,14.324079 109.98604,14.3674825 C109.924361,14.410886 109.847835,14.4325874 109.756459,14.4325874 C109.660515,14.4325874 109.556576,14.3971798 109.444641,14.3263636 C109.332706,14.2555474 109.199071,14.176737 109.043732,14.0899301 C108.888393,14.0031231 108.706787,13.9243127 108.498907,13.8534965 C108.291027,13.7826803 108.045458,13.7472727 107.762193,13.7472727 C107.506341,13.7472727 107.282474,13.7781116 107.090585,13.8397902 C106.898696,13.9014688 106.737649,13.9871323 106.607438,14.0967832 C106.477228,14.2064341 106.380142,14.3377848 106.316179,14.4908392 C106.252216,14.6438935 106.220235,14.811794 106.220235,14.9945455 C106.220235,15.2275536 106.28534,15.4217242 106.41555,15.5770629 C106.54576,15.7324017 106.71823,15.8648946 106.932963,15.9745455 C107.147696,16.0841964 107.392122,16.1824238 107.666249,16.2692308 C107.940377,16.3560377 108.221353,16.4485543 108.509186,16.5467832 C108.79702,16.6450121 109.077996,16.7592301 109.352123,16.8894406 C109.626251,17.019651 109.870677,17.1841249 110.08541,17.3828671 C110.300143,17.5816094 110.472612,17.8248937 110.602823,18.1127273 C110.733033,18.4005609 110.798137,18.7500679 110.798137,19.1612587 C110.798137,19.6089999 110.721611,20.0281799 110.568557,20.4188112 C110.415503,20.8094425 110.191635,21.1498121 109.896949,21.4399301 C109.602262,21.7300481 109.242475,21.958484 108.817578,22.1252448 C108.392681,22.2920055 107.906112,22.3753846 107.357858,22.3753846 C107.042611,22.3753846 106.731939,22.3445458 106.42583,22.2828671 C106.119721,22.2211885 105.826181,22.1332407 105.5452,22.019021 C105.26422,21.9048013 105.000376,21.7677397 104.753662,21.6078322 C104.506947,21.4479246 104.287649,21.2697446 104.09576,21.0732867 L104.637158,20.1892308 C104.682846,20.1252677 104.74224,20.0715853 104.81534,20.0281818 C104.888441,19.9847783 104.966109,19.9630769 105.048347,19.9630769 C105.162567,19.9630769 105.285922,20.0099063 105.418417,20.1035664 C105.550912,20.1972266 105.708533,20.3011649 105.891284,20.4153846 C106.074036,20.5296043 106.287623,20.6335427 106.532054,20.7272028 C106.776484,20.8208629 107.070024,20.8676923 107.412683,20.8676923 C107.938093,20.8676923 108.344709,20.7431947 108.632543,20.4941958 C108.920377,20.2451969 109.064291,19.8876946 109.064291,19.4216783 C109.064291,19.1612574 108.999187,18.948812 108.868977,18.7843357 C108.738766,18.6198593 108.566297,18.4816556 108.351564,18.3697203 C108.136831,18.257785 107.892405,18.1629841 107.618277,18.0853147 C107.34415,18.0076453 107.065458,17.923124 106.782193,17.8317483 C106.498929,17.7403725 106.220237,17.6307233 105.946109,17.5027972 C105.671982,17.3748712 105.427556,17.2081129 105.212823,17.0025175 C104.99809,16.796922 104.825621,16.5399316 104.69541,16.2315385 C104.5652,15.9231453 104.500095,15.5427995 104.500095,15.0904895 C104.500095,14.7295553 104.572053,14.377764 104.71597,14.0351049 C104.859886,13.6924458 105.068905,13.388626 105.343033,13.1236364 C105.61716,12.8586467 105.955245,12.6462013 106.357298,12.4862937 C106.759352,12.3263861 107.220792,12.2464336 107.741634,12.2464336 C108.326439,12.2464336 108.865548,12.3378079 109.358977,12.5205594 C109.852406,12.7033109 110.272728,12.9591592 110.619956,13.2881119 L110.160795,14.1584615 Z M141.858884,17.3109091 C141.858884,18.0373463 141.738955,18.7100901 141.499094,19.3291608 C141.259233,19.9482315 140.920005,20.4839138 140.481402,20.9362238 C140.042798,21.3885337 139.515111,21.7414673 138.898325,21.995035 C138.281539,22.2486027 137.596231,22.3753846 136.842381,22.3753846 C136.0931,22.3753846 135.410076,22.2486027 134.79329,21.995035 C134.176504,21.7414673 133.647674,21.3885337 133.206786,20.9362238 C132.765898,20.4839138 132.424387,19.9482315 132.182241,19.3291608 C131.940095,18.7100901 131.819024,18.0373463 131.819024,17.3109091 C131.819024,16.5844719 131.940095,15.911728 132.182241,15.2926573 C132.424387,14.6735866 132.765898,14.1379044 133.206786,13.6855944 C133.647674,13.2332845 134.176504,12.8803509 134.79329,12.6267832 C135.410076,12.3732155 136.0931,12.2464336 136.842381,12.2464336 C137.344947,12.2464336 137.81781,12.3046847 138.260982,12.4211888 C138.704155,12.5376929 139.110771,12.7021668 139.480842,12.9146154 C139.850914,13.127064 140.183288,13.3851966 140.477975,13.689021 C140.772662,13.9928453 141.022799,14.3320727 141.228395,14.7067133 C141.43399,15.0813539 141.590469,15.4879698 141.697835,15.9265734 C141.805202,16.365177 141.858884,16.8266176 141.858884,17.3109091 Z M139.974269,17.3109091 C139.974269,16.7672234 139.901169,16.2795126 139.754968,15.8477622 C139.608767,15.4160118 139.40089,15.0493721 139.131332,14.7478322 C138.861773,14.4462922 138.533968,14.2155719 138.147905,14.0556643 C137.761843,13.8957568 137.326672,13.8158042 136.842381,13.8158042 C136.358089,13.8158042 135.922919,13.8957568 135.536856,14.0556643 C135.150794,14.2155719 134.821846,14.4462922 134.550003,14.7478322 C134.27816,15.0493721 134.069141,15.4160118 133.92294,15.8477622 C133.776739,16.2795126 133.70364,16.7672234 133.70364,17.3109091 C133.70364,17.8545948 133.776739,18.3423055 133.92294,18.7740559 C134.069141,19.2058064 134.27816,19.5713039 134.550003,19.8705594 C134.821846,20.169815 135.150794,20.3993931 135.536856,20.5593007 C135.922919,20.7192083 136.358089,20.7991608 136.842381,20.7991608 C137.326672,20.7991608 137.761843,20.7192083 138.147905,20.5593007 C138.533968,20.3993931 138.861773,20.169815 139.131332,19.8705594 C139.40089,19.5713039 139.608767,19.2058064 139.754968,18.7740559 C139.901169,18.3423055 139.974269,17.8545948 139.974269,17.3109091 Z M153.671426,13.8226573 L153.671426,16.7558042 L157.385831,16.7558042 L157.385831,18.2292308 L153.671426,18.2292308 L153.671426,22.2657343 L151.821076,22.2657343 L151.821076,12.3560839 L158.071146,12.3560839 L158.071146,13.8226573 L153.671426,13.8226573 Z" id="AGENTS-OF" fill="#ffffff"></path>
                <path d="M29.1680186,43.564289 C28.7415985,41.8372874 28.0273554,40.4567728 27.0252681,39.422704 C26.0231807,38.3886351 24.7865808,37.8716084 23.3154312,37.8716084 C22.1001338,37.8716084 21.1300425,38.1914187 20.4051282,38.831049 C19.6802139,39.4706792 19.3177622,40.2808653 19.3177622,41.2616317 C19.3177622,42.029188 19.5789407,42.6954595 20.1013054,43.2604662 C20.6236701,43.8254729 21.4072053,44.3318393 22.4519347,44.7795804 C23.7525162,45.3339266 24.9358144,45.7976516 26.0018648,46.1707692 C27.0679152,46.5438869 27.9793746,46.9756308 28.7362704,47.466014 C29.4931662,47.9563972 30.0794851,48.5746971 30.4952448,49.3209324 C30.9110044,50.0671677 31.1188811,51.0799004 31.1188811,52.3591608 C31.1188811,53.1480381 30.9962872,53.9262432 30.7510956,54.6937995 C30.505904,55.4613558 30.1274618,56.148948 29.6157576,56.7565967 C29.1040534,57.3642455 28.4377819,57.8546213 27.6169231,58.2277389 C26.7960643,58.6008566 25.8099824,58.7874126 24.658648,58.7874126 C23.9124127,58.7874126 23.2674619,58.7341109 22.7237762,58.6275058 C22.1800905,58.5209008 21.7216957,58.3929767 21.3485781,58.2437296 C20.9754604,58.0944825 20.682301,57.9452377 20.4690909,57.7959907 C20.2558808,57.6467436 20.106636,57.5401402 20.021352,57.4761772 C19.6162528,57.7746713 19.2111598,58.0411799 18.8060606,58.275711 C18.4009615,58.510242 17.9958684,58.6808075 17.5907692,58.7874126 C17.3562381,57.188337 17.1803425,55.7651811 17.0630769,54.5179021 C16.9458114,53.2706231 16.8871795,52.1779379 16.8871795,51.2398135 L17.9425641,51.2398135 C17.9425641,52.1779379 18.1344503,53.0360956 18.5182284,53.8143124 C18.9020066,54.5925291 19.3923824,55.2588006 19.9893706,55.8131469 C20.5863589,56.3674931 21.2579605,56.799237 22.0041958,57.1083916 C22.7504311,57.4175462 23.4753345,57.5721212 24.1789277,57.5721212 C24.6266689,57.5721212 25.1223749,57.4974988 25.6660606,57.3482517 C26.2097463,57.1990047 26.7214428,56.9644771 27.2011655,56.644662 C27.6808882,56.3248469 28.0859813,55.9197538 28.4164569,55.4293706 C28.7469325,54.9389874 28.9121678,54.3526685 28.9121678,53.6703963 C28.9121678,52.817556 28.6829704,52.0713319 28.2245688,51.4317016 C27.7661671,50.7920714 27.0359335,50.2910352 26.0338462,49.9285781 C24.8611907,49.5021579 23.7365244,49.1077252 22.6598135,48.7452681 C21.5831026,48.3828109 20.634332,47.951067 19.8134732,47.4500233 C18.9926144,46.9489796 18.3370032,46.3200193 17.84662,45.5631235 C17.3562369,44.8062278 17.111049,43.8094856 17.111049,42.5728671 C17.111049,41.6773848 17.2709541,40.8671987 17.5907692,40.1422844 C17.9105843,39.4173701 18.3423283,38.79374 18.886014,38.2713753 C19.4296997,37.7490106 20.0639902,37.3439175 20.7889044,37.0560839 C21.5138187,36.7682503 22.2707031,36.6243357 23.0595804,36.6243357 C23.9763838,36.6243357 24.759919,36.789571 25.4102098,37.1200466 C26.0605005,37.4505222 26.66281,37.7436817 27.2171562,37.9995338 C27.8781074,37.4665086 28.5710298,37.0933966 29.2959441,36.8801865 C29.5944382,37.8609528 29.807645,38.9003364 29.9355711,39.9983683 C30.0634971,41.0964002 30.1274592,42.2850286 30.1274592,43.564289 L29.1680186,43.564289 Z M48.400233,58.3076923 L48.400233,57.3482517 C50.6815808,57.3482517 51.8222376,56.3675001 51.8222376,54.4059674 L51.8222376,39.6625641 C51.8222376,38.8736868 51.2998808,38.4792541 50.2551514,38.4792541 C48.8479649,38.4792541 47.707308,38.9323187 46.8331467,39.8384615 C45.9589854,40.7446044 45.3087044,42.1144586 44.8822842,43.9480653 L43.8908623,43.6922145 L44.7543588,36.8801865 C45.244742,36.9441495 45.708467,36.9974512 46.1455477,37.0400932 C46.5826283,37.0827353 47.0037119,37.1040559 47.4088111,37.1040559 L59.7216316,37.1040559 C60.1693727,37.1040559 60.6277675,37.0827353 61.0968297,37.0400932 C61.5658919,36.9974512 62.0456074,36.9441495 62.5359905,36.8801865 L62.5359905,43.564289 L61.672494,43.6922145 C61.4166419,40.2808532 59.7109869,38.5751981 56.5554777,38.5751981 C55.4894273,38.5751981 54.9564101,38.9376498 54.9564101,39.6625641 L54.9564101,54.4059674 C54.9564101,56.3675001 56.1077273,57.3482517 58.4103961,57.3482517 L58.4103961,58.3076923 L48.400233,58.3076923 Z M81.7042422,58.3076923 L81.7042422,57.3482517 C83.878985,57.3482517 84.9663401,56.8578759 84.9663401,55.8771096 L84.9663401,49.6407459 L79.6254543,40.7819114 C78.5380829,38.9909468 77.365445,38.0954779 76.1075056,38.0954779 L76.1075056,37.1040559 L84.8384147,37.1040559 L84.8384147,38.0954779 C83.3033021,38.0954779 82.5357573,38.4579296 82.5357573,39.1828438 C82.5357573,39.3534119 82.5783987,39.513317 82.6636827,39.6625641 C82.7489667,39.8118112 82.8768909,40.025018 83.0474589,40.3021911 L87.5568296,47.8497902 L91.682424,40.4301166 C91.746387,40.2169065 91.7996887,39.9930392 91.8423307,39.7585082 C91.8849728,39.5239771 91.9062934,39.2894495 91.9062934,39.0549184 C91.9062934,38.4152882 91.0534659,38.0954779 89.3477853,38.0954779 L89.3477853,37.1040559 L96.7674589,37.1040559 L96.7674589,38.0954779 C95.6587665,38.0954779 94.8165993,38.5005709 94.2409321,39.3107692 L88.2604193,49.5448019 L88.2604193,56.005035 C88.2604193,56.9005173 89.3157934,57.3482517 91.4265732,57.3482517 L91.4265732,58.3076923 L81.7042422,58.3076923 Z M110.051142,58.3076923 L110.051142,57.3482517 C111.92739,57.3482517 112.865501,56.7725932 112.865501,55.6212587 L112.865501,40.5260606 C112.865501,38.905664 111.810127,38.0954779 109.699347,38.0954779 L109.699347,37.1040559 L118.941958,37.1040559 L118.941958,38.0954779 C116.980425,38.0954779 115.999673,38.905664 115.999673,40.5260606 L115.999673,55.6212587 C115.999673,56.5167411 116.692596,56.9644755 118.078461,56.9644755 L119.549603,56.9644755 C120.53037,56.9644755 121.383197,56.8951833 122.108111,56.7565967 C122.833026,56.6180102 123.451326,56.4207938 123.96303,56.1649417 C124.901154,55.6532375 125.743321,54.1288083 126.489557,51.5916084 L127.353053,51.7195338 L126.393613,58.3076923 L110.051142,58.3076923 Z M140.444848,58.3076923 L140.444848,57.3482517 C142.406381,57.3482517 143.387132,56.6553294 143.387132,55.2694639 L143.387132,40.7819114 C143.387132,38.9909468 142.331758,38.0954779 140.220978,38.0954779 L140.220978,37.1040559 L157.011188,37.1040559 L157.267039,43.0845688 L156.275617,43.2124942 C156.083728,42.0611597 155.795899,41.1656908 155.412121,40.5260606 C155.028343,39.8864304 154.564618,39.4120451 154.020932,39.1028904 C153.477246,38.7937358 152.853616,38.61251 152.150023,38.5592075 C151.44643,38.5059049 150.678885,38.4792541 149.847365,38.4792541 L148.951888,38.4792541 C147.331491,38.4792541 146.521305,38.9589696 146.521305,39.9184149 L146.521305,45.6430769 C146.521305,46.2827072 146.777153,46.6025175 147.288857,46.6025175 L148.376223,46.6025175 C148.909248,46.6025175 149.404954,46.5758666 149.863356,46.5225641 C150.321758,46.4692616 150.726851,46.3306771 151.078647,46.1068065 C151.430444,45.8829359 151.718273,45.5418049 151.942144,45.0834033 C152.166015,44.6250016 152.32059,44.0013715 152.405874,43.2124942 L153.589184,43.2124942 L153.589184,51.4956643 L152.405874,51.4956643 C152.32059,50.706787 152.192665,50.0831569 152.022097,49.6247552 C151.851529,49.1663536 151.606341,48.8145622 151.286526,48.5693706 C150.966711,48.324179 150.572278,48.1642739 150.103216,48.0896503 C149.634154,48.0150268 149.058495,47.9777156 148.376223,47.9777156 L147.992447,47.9777156 C147.011681,47.9777156 146.521305,48.329507 146.521305,49.0331002 L146.521305,55.1415385 C146.521305,56.3568359 147.374132,56.9644755 149.079813,56.9644755 L150.071235,56.9644755 C151.414458,56.9644755 152.496483,56.8632023 153.317342,56.6606527 C154.138201,56.4581031 154.804472,56.1382928 155.316177,55.7012121 C155.827881,55.2641315 156.238304,54.7151237 156.547459,54.0541725 C156.856613,53.3932212 157.171093,52.6150161 157.490909,51.7195338 L158.354405,51.9753846 L157.490909,58.3076923 L140.444848,58.3076923 Z" id="STYLE" fill="#E5CF73"></path>
            </g>
        </g>
    </g>
</svg>